<?xml version="1.0" standalone="no"?>
<!DOCTYPE svg PUBLIC "-//W3C//DTD SVG 20010904//EN"
 "http://www.w3.org/TR/2001/REC-SVG-20010904/DTD/svg10.dtd">
<svg version="1.0" xmlns="http://www.w3.org/2000/svg"
 width="2956.000000pt" height="6147.000000pt" viewBox="0 0 2956.000000 6147.000000"
 preserveAspectRatio="xMidYMid meet">

<g transform="translate(0.000000,6147.000000) scale(0.100000,-0.100000)"
fill="none" stroke="none">
<path d="M7002 57573 l3 -3888 7775 0 7775 0 3 3888 2 3887 -7780 0 -7780 0 2
-3887z"/>
<path d="M3890 57570 l0 -2330 775 0 775 0 0 2330 0 2330 -775 0 -775 0 0
-2330z"/>
<path d="M24120 57570 l0 -2330 775 0 775 0 0 2330 0 2330 -775 0 -775 0 0
-2330z"/>
<path d="M249 52120 c-95 -16 -178 -82 -221 -175 l-23 -50 -3 -11552 -2
-11553 2720 0 2720 0 0 11670 0 11670 -2572 -1 c-1415 -1 -2594 -5 -2619 -9z"/>
<path d="M7007 52123 c-4 -3 -7 -5255 -7 -11670 l0 -11663 7780 0 7780 0 -2
11668 -3 11667 -7771 3 c-4274 1 -7774 -1 -7777 -5z"/>
<path d="M24120 40460 l0 -11670 2720 0 2720 0 -2 11558 -3 11557 -27 50 c-34
64 -90 118 -153 147 l-50 23 -2602 3 -2603 2 0 -11670z"/>
<path d="M7000 13620 l0 -13610 3500 0 3500 0 0 13610 0 13610 -3500 0 -3500
0 0 -13610z"/>
<path d="M15560 13620 l0 -13610 3500 0 3500 0 0 13610 0 13610 -3500 0 -3500
0 0 -13610z"/>
</g>
</svg>
